# xmcd CD database file
#
# Track frame offsets:
#	150
#	13877
#	31670
#
# Disc length: 565 seconds
#
# Revision: 3
# Processed by: cddbd v1.4PL0 Copyright (c) Steve Scherf et al.
# Submitted via: CDex 1.50
#
DISCID=18023303
DTITLE=Nick Cave and Shane MacGowan - What A Wonderful World
DYEAR=1992
DGENRE=Rock
TTITLE0=What A Wonderful World
TTITLE1=Rainy night in Soho
TTITLE2=Lucy
EXTD=YEAR: 1992
EXTT0=
EXTT1=
EXTT2=
PLAYORDER=
